<svg width="141" height="141" viewBox="0 0 141 141" fill="none" xmlns="http://www.w3.org/2000/svg">
<path fill-rule="evenodd" clip-rule="evenodd" d="M41.5372 100.463C25.2654 84.1909 25.2654 57.8091 41.5372 41.5372C49.3513 33.7232 59.9493 29.3333 71 29.3333C82.0507 29.3333 92.6488 33.7232 100.463 41.5372C116.735 57.8091 116.735 84.1909 100.463 100.463C84.191 116.735 57.8091 116.735 41.5372 100.463ZM76.8926 71L88.6777 59.2149C90.3049 57.5877 90.3049 54.9495 88.6777 53.3223C87.0505 51.6951 84.4123 51.6951 82.7851 53.3223L71 65.1074L59.2149 53.3223C57.5877 51.6951 54.9495 51.6951 53.3224 53.3223C51.6952 54.9495 51.6952 57.5877 53.3224 59.2149L65.1075 71L53.3224 82.7851C51.6952 84.4123 51.6952 87.0505 53.3224 88.6777C54.9495 90.3049 57.5877 90.3049 59.2149 88.6777L71 76.8926L82.7851 88.6777C84.4123 90.3049 87.0505 90.3049 88.6777 88.6777C90.3049 87.0505 90.3049 84.4123 88.6777 82.7851L76.8926 71Z" fill="url(#paint0_linear_184_2120)"/>
<defs>
<linearGradient id="paint0_linear_184_2120" x1="41.5372" y1="41.5372" x2="100.463" y2="100.463" gradientUnits="userSpaceOnUse">
<stop stop-color="#F1BAEF"/>
<stop offset="1" stop-color="#B8BBFF"/>
</linearGradient>
</defs>
</svg>
