<svg width="100" height="100" viewBox="0 0 100 100" fill="none" xmlns="http://www.w3.org/2000/svg">
<path fill-rule="evenodd" clip-rule="evenodd" d="M8.3335 50C8.3335 26.9881 26.9883 8.33334 50.0002 8.33334C61.0508 8.33334 71.6489 12.7232 79.4629 20.5372C87.277 28.3512 91.6668 38.9493 91.6668 50C91.6668 73.0119 73.012 91.6667 50.0002 91.6667C26.9883 91.6667 8.3335 73.0119 8.3335 50ZM54.1668 54.1667H70.8335C73.1347 54.1667 75.0002 52.3012 75.0002 50C75.0002 47.6988 73.1347 45.8333 70.8335 45.8333H54.1668V29.1667C54.1668 26.8655 52.3013 25 50.0002 25C47.699 25 45.8335 26.8655 45.8335 29.1667V45.8333H29.1668C26.8656 45.8333 25.0002 47.6988 25.0002 50C25.0002 52.3012 26.8656 54.1667 29.1668 54.1667H45.8335V70.8333C45.8335 73.1345 47.699 75 50.0002 75C52.3013 75 54.1668 73.1345 54.1668 70.8333V54.1667Z" fill="url(#paint0_linear_166_245)"/>
<defs>
<linearGradient id="paint0_linear_166_245" x1="50.0002" y1="8.33334" x2="50.0002" y2="91.6667" gradientUnits="userSpaceOnUse">
<stop stop-color="#F1BAEF"/>
<stop offset="1" stop-color="#B8BBFF"/>
</linearGradient>
</defs>
</svg>
